<svg fill="#003366" xmlns="http://www.w3.org/2000/svg" viewBox="0 0 25 23" width="25" height="23">
	<defs>
		<clipPath fill="#003366" clipPathUnits="userSpaceOnUse" id="cp1">
			<path d="M0 -1L24 -1L24 23L0 23Z" />
		</clipPath>
	</defs>
	<style>
		tspan { white-space:pre }
	</style>
	<g id="Page 1" clip-path="url(#cp1)">
		<path id="Path 1" fill-rule="evenodd" class="shp0" d="M20 8.35C20 12.63 15.98 16.67 10.08 16.67C9.01 16.67 7.87 16.53 6.69 16.24C5.3 17.1 2.21 17.97 0.04 18.36C0.85 16.77 1.75 14.57 1.7 13.05C0.61 11.74 0 10.06 0 8.35C0 3.53 4.72 0 10 0C15.25 0 20 3.5 20 8.35ZM2 8.35C2 10.22 2.85 11.29 3.68 12.29C3.71 13.29 3.77 13.96 3.35 15.47C5.1 14.92 5.39 14.69 6.36 14.1C7.36 14.35 8.49 14.66 10.08 14.66C14.97 14.66 18 11.39 18 8.35C18 4.85 14.41 2 10 2C5.59 2 2 4.85 2 8.35ZM7.57 8.48C7.57 9.07 7.09 9.55 6.5 9.55C5.91 9.55 5.43 9.07 5.43 8.48C5.43 7.89 5.91 7.41 6.5 7.41C7.09 7.41 7.57 7.89 7.57 8.48ZM22.88 18.52C22.85 19.52 23.44 20.96 23.97 22C22.55 21.74 20.53 21.18 19.62 20.62C16.34 21.41 13.55 20.39 12.04 18.52C12.64 18.43 13.22 18.31 13.78 18.15C15.61 19.7 17.74 19.53 19.87 19.01C20.56 19.43 20.64 19.51 21.54 19.82C21.35 19 21.38 18.7 21.4 17.96C23.19 15.82 22.61 13.85 20.93 12.59C21.17 12.14 21.37 11.66 21.53 11.17C24.43 13.09 24.64 16.42 22.88 18.52ZM14.57 8.48C14.57 9.07 14.09 9.55 13.5 9.55C12.91 9.55 12.43 9.07 12.43 8.48C12.43 7.89 12.91 7.41 13.5 7.41C14.09 7.41 14.57 7.89 14.57 8.48ZM11.07 8.48C11.07 9.07 10.59 9.55 10 9.55C9.41 9.55 8.93 9.07 8.93 8.48C8.93 7.89 9.41 7.41 10 7.41C10.59 7.41 11.07 7.89 11.07 8.48Z" />
	</g>
</svg>
